# xmcd
#
# Track frame offsets: 
#        150
#        15708
#        37832
#        52563
#        68495
#        82229
#        97982
#        112592
#
# Disc length: 1788 seconds
#
# Revision: 0
# Processed by: cddbd v1.5.2PL0 Copyright (c) Steve Scherf et al.
# Submitted via: ExactAudioCopyFreeDBPlugin 1.0
#
DISCID=4b06fa08
DTITLE=Davisson Brothers Band - Fighter
DYEAR=2018
DGENRE=Country
TTITLE0=Po’ Boyz
TTITLE1=Breathe
TTITLE2=Didn’t Come Here To Leave
TTITLE3=Let’s Build A Fire
TTITLE4=Black Like Cash
TTITLE5=Fighter
TTITLE6=Get Down South
TTITLE7=Appalachian American
EXTD=
EXTT0=
EXTT1=
EXTT2=
EXTT3=
EXTT4=
EXTT5=
EXTT6=
EXTT7=
PLAYORDER=
